# xmcd CD database file
#
# Track frame offsets:
#	155
#	17851
#	41888
#	69652
#	93681
#	119967
#	152854
#	186014
#	218257
#
# Disc length: 3453 seconds
#
# Revision: 0
# Processed by: cddbd v1.5.2PL0 Copyright (c) Steve Scherf et al.
# Submitted via: CDex 1.70beta2
#
DISCID=830d7b09
DTITLE=Ravy Magnifique - Meeting 2
DYEAR=1900
DGENRE=Jazz
TTITLE0=Some think for you
TTITLE1=Eleven
TTITLE2=Blues for Alice
TTITLE3=Aout
TTITLE4=Carre magique
TTITLE5=The way
TTITLE6=Cinq prieres
TTITLE7=Tribute to Coltrane
TTITLE8=Shiboumy
EXTD=
EXTT0=
EXTT1=
EXTT2=
EXTT3=
EXTT4=
EXTT5=
EXTT6=
EXTT7=
EXTT8=
PLAYORDER=
